<svg width="20" height="21" viewBox="0 0 20 21" fill="none" xmlns="http://www.w3.org/2000/svg">
<path d="M11.2816 11.2691C11.2816 10.2779 12.085 9.47412 13.0762 9.47412C14.0675 9.47412 14.8713 10.2779 14.8713 11.2691C14.8713 12.2604 14.0675 13.0642 13.0762 13.0642C12.085 13.0642 11.2816 12.2604 11.2816 11.2691ZM10.3112 11.2691C10.3112 12.7962 11.5491 14.0341 13.0762 14.0341C14.6034 14.0341 15.8413 12.7962 15.8413 11.2691C15.8413 9.74205 14.6034 8.50419 13.0762 8.50419C11.5491 8.50419 10.3112 9.74205 10.3112 11.2691ZM15.3046 8.39459C15.3046 8.75124 15.5938 9.04092 15.9509 9.04092C16.3076 9.04092 16.5973 8.75124 16.5973 8.39459C16.5973 8.03793 16.308 7.74869 15.9509 7.74869C15.5938 7.74869 15.3046 8.03793 15.3046 8.39459ZM10.9006 15.6521C10.3756 15.6282 10.0902 15.5407 9.90058 15.4668C9.64917 15.3689 9.46997 15.2524 9.28119 15.064C9.09285 14.8757 8.97585 14.6965 8.87842 14.4451C8.80447 14.2555 8.71705 13.9701 8.69312 13.4452C8.66703 12.8776 8.66181 12.7071 8.66181 11.2691C8.66181 9.83121 8.66746 9.66115 8.69312 9.09311C8.71705 8.56813 8.80491 8.28324 8.87842 8.09317C8.97628 7.84177 9.09285 7.66258 9.28119 7.47381C9.46953 7.28548 9.64874 7.16848 9.90058 7.07105C10.0902 6.99711 10.3756 6.90969 10.9006 6.88576C11.4682 6.85967 11.6387 6.85445 13.0762 6.85445C14.5142 6.85445 14.6843 6.8601 15.2524 6.88576C15.7774 6.90969 16.0623 6.99755 16.2523 7.07105C16.5037 7.16848 16.6829 7.28548 16.8717 7.47381C17.0601 7.66214 17.1766 7.84177 17.2745 8.09317C17.3484 8.28281 17.4359 8.56813 17.4598 9.09311C17.4859 9.66115 17.4911 9.83121 17.4911 11.2691C17.4911 12.7066 17.4859 12.8771 17.4598 13.4452C17.4359 13.9701 17.348 14.2555 17.2745 14.4451C17.1766 14.6965 17.0601 14.8757 16.8717 15.064C16.6834 15.2524 16.5037 15.3689 16.2523 15.4668C16.0627 15.5407 15.7774 15.6282 15.2524 15.6521C14.6847 15.6782 14.5142 15.6834 13.0762 15.6834C11.6387 15.6834 11.4682 15.6782 10.9006 15.6521V15.6521ZM10.8562 5.91714C10.2829 5.94324 9.89145 6.03414 9.54913 6.16724C9.19507 6.30468 8.89495 6.48909 8.59526 6.78834C8.296 7.08758 8.11158 7.38769 7.97413 7.74217C7.84103 8.08447 7.75013 8.47592 7.72403 9.04918C7.6975 9.62331 7.69141 9.80685 7.69141 11.2691C7.69141 12.7314 7.6975 12.915 7.72403 13.4891C7.75013 14.0624 7.84103 14.4538 7.97413 14.7961C8.11158 15.1501 8.29557 15.4507 8.59526 15.7499C8.89451 16.0492 9.19464 16.2332 9.54913 16.371C9.89188 16.5041 10.2829 16.595 10.8562 16.6211C11.4308 16.6472 11.6139 16.6538 13.0762 16.6538C14.539 16.6538 14.7221 16.6477 15.2963 16.6211C15.8696 16.595 16.261 16.5041 16.6033 16.371C16.9574 16.2332 17.2575 16.0492 17.5572 15.7499C17.8565 15.4507 18.0405 15.1501 18.1783 14.7961C18.3114 14.4538 18.4028 14.0624 18.4284 13.4891C18.4545 12.9145 18.4606 12.7314 18.4606 11.2691C18.4606 9.80685 18.4545 9.62331 18.4284 9.04918C18.4024 8.47592 18.3114 8.08447 18.1783 7.74217C18.0405 7.38813 17.8565 7.08801 17.5572 6.78834C17.258 6.48909 16.9574 6.30468 16.6038 6.16724C16.261 6.03414 15.8696 5.9428 15.2967 5.91714C14.7226 5.89105 14.539 5.88452 13.0767 5.88452C11.6139 5.88452 11.4308 5.89061 10.8562 5.91714" fill="#A6A6A6"/>
</svg>
