<svg width="20" height="21" viewBox="0 0 20 21" fill="none" xmlns="http://www.w3.org/2000/svg">
<path fill-rule="evenodd" clip-rule="evenodd" d="M18.1066 8.81182C18.2148 8.44744 18.1066 8.19238 17.6015 8.19238H15.9181C15.4853 8.19238 15.2929 8.42315 15.1847 8.67821C15.1847 8.67821 14.3309 10.7916 13.1165 12.1519C12.7197 12.5527 12.5513 12.6742 12.3349 12.6742C12.2267 12.6742 12.0704 12.5527 12.0704 12.1883V8.81182C12.0704 8.37457 11.9501 8.19238 11.5894 8.19238H8.94404C8.6795 8.19238 8.51116 8.39886 8.51116 8.58105C8.51116 8.994 9.11238 9.09117 9.18452 10.2329V12.7349C9.18452 13.2815 9.08833 13.3786 8.87189 13.3786C8.30675 13.3786 6.91193 11.2653 6.09428 8.83611C5.92593 8.38672 5.76962 8.19238 5.33674 8.19238H3.65334C3.17237 8.19238 3.07617 8.42315 3.07617 8.67821C3.07617 9.12761 3.64131 11.3624 5.73355 14.3138C7.12837 16.33 9.08833 17.4232 10.8679 17.4232C11.9381 17.4232 12.0704 17.1802 12.0704 16.7673V15.2369C12.0704 14.7511 12.1666 14.6539 12.5153 14.6539C12.7678 14.6539 13.1886 14.7754 14.1866 15.747C15.329 16.9009 15.5213 17.4232 16.1586 17.4232H17.842C18.323 17.4232 18.5635 17.1802 18.4192 16.7066C18.2629 16.2329 17.7218 15.5406 17.0003 14.7146C16.6035 14.241 16.0143 13.743 15.846 13.4879C15.5935 13.16 15.6656 13.0142 15.846 12.7349C15.846 12.7227 17.9022 9.80777 18.1066 8.81182V8.81182Z" fill="#A6A6A6"/>
</svg>
